<svg xmlns="http://www.w3.org/2000/svg" viewBox="0 0 50 50" width="50" height="50" fill="none">

    <!--skills-->

    <g id="code">
        <path fill="#7572D5" fill-rule="evenodd"
              d="m18.313 42.065 8.95-35.377 4.174 1.184-8.95 35.44-4.174-1.247ZM13.502 12.688l3.06 3.24L7.995 25l8.567 9.072-3.06 3.24L1.875 25l11.627-12.313ZM36.498 12.688l-3.06 3.24L42.005 25l-8.568 9.072 3.06 3.24L48.126 25 36.498 12.687Z"
              clip-rule="evenodd"/>
    </g>

    <g id="css3">
        <path fill="#7572D5"
              d="m38.05 10.844-25.104-.006.405 4.917 19.287.003-.486 5.092H19.503l.458 4.824h11.775l-.697 6.607-5.542 1.508-5.63-1.519-.359-3.957h-4.972l.552 7.228 10.409 3.193 10.234-2.869 2.318-25.02.002-.001ZM5.499 2.569h40l-3.638 40.43-16.406 4.57L9.14 42.997 5.498 2.569Z"/>
    </g>

    <g id="react">
        <g fill="#7572D5" clip-path="url(#a)">
            <path d="M47.813 25c0-2.917-3.126-5.625-8.334-7.5l-.937-.313v-.416c1.145-5.73.312-10-2.292-11.563-2.604-1.562-6.458-.104-10.625 3.542L25 9.375l-.208-.208h-.209c-4.27-3.959-8.437-5.313-11.041-3.855-2.604 1.459-3.334 5.521-2.292 10.834.11.338.18.687.208 1.041l-1.146.417C5.208 19.375 2.188 22.084 2.188 25c0 2.917 3.333 5.833 8.541 7.708l.73.209a3.749 3.749 0 0 0-.209 1.145c-1.042 5.209-.104 9.167 2.292 10.626 2.396 1.458 6.77.104 10.937-3.542l.625-.521.834.833c2.916 2.5 5.833 3.855 8.125 3.855a4.168 4.168 0 0 0 2.291-.626c2.604-1.458 3.542-5.729 2.396-11.145v-.209a4.48 4.48 0 0 1-.104-.52h.312c5.521-1.98 8.855-4.792 8.855-7.813Zm-3.021 0c0 1.25-2.292 3.438-6.771 4.896h-.209A38.225 38.225 0 0 0 35.834 25a58.22 58.22 0 0 0 1.875-4.896l.834.209c4.166 1.458 6.25 3.437 6.25 4.687ZM27.917 39.167l-.834-.625a44.895 44.895 0 0 0 3.334-4.167l5.312-.833c.104.208.104.416.209.52.37 1.887.441 3.82.208 5.73a4.27 4.27 0 0 1-1.25 2.395c-1.042.626-3.854-.208-6.98-3.02Zm-1.355-4.584-1.458 1.875-1.666-1.875h3.125ZM12.293 20a33.226 33.226 0 0 0 1.979 5 34.37 34.37 0 0 0-1.98 5.104l-.624-.208a15 15 0 0 1-5-2.709A3.23 3.23 0 0 1 5.208 25c0-1.25 2.084-3.23 6.042-4.583L12.292 20Zm11.146-4.583L25 13.646l1.563 1.77h-3.125Zm11.458-7.605c1.146.625 1.77 3.75.833 8.334a.417.417 0 0 1-.104.312l-5.208-.833a44.896 44.896 0 0 0-3.334-4.167l.625-.52c3.334-2.917 6.042-3.75 7.188-3.126ZM17.5 18.854l-.833 1.354-.73 1.355c-.312-.73-.52-1.459-.833-2.292l2.396-.417ZM15.104 30.73c.313-.729.521-1.458.834-2.291l.729 1.354.833 1.354-2.396-.417ZM32.5 25a35.118 35.118 0 0 1-1.77 3.333c-.626 1.146-1.355 2.188-1.98 3.23h-7.5c-.73-1.146-1.458-2.188-1.98-3.23A32.303 32.303 0 0 1 17.5 25a24.997 24.997 0 0 1 1.77-3.333 31.777 31.777 0 0 1 1.98-3.125 45.107 45.107 0 0 1 7.5 0c.73 1.041 1.354 2.083 1.98 3.125A24.997 24.997 0 0 1 32.5 25Zm.833-4.792-.833-1.354 2.396.521c-.232.746-.51 1.476-.834 2.188l-.729-1.355ZM32.5 31.146l.833-1.354.73-1.459L35 30.73l-2.5.417Zm-9.688-19.792h.105l-3.334 4.167-5.208.833c-.104-.312-.104-.52-.208-.833-.834-4.271-.209-7.188.833-7.709.277-.181.61-.255.938-.208 1.458 0 3.958 1.042 6.77 3.542l.105.208Zm-8.645 23.23a3.02 3.02 0 0 1 .208-.938l5.313.729a34.379 34.379 0 0 0 3.333 4.167l-.209.208-.208.208a14.895 14.895 0 0 1-4.896 3.021 3.333 3.333 0 0 1-2.604.209c-1.146-.626-1.77-3.438-.937-7.605Z"/>
            <path d="M25 20.417a4.583 4.583 0 1 0-.208 9.164A4.583 4.583 0 0 0 25 20.417Z"/>
        </g>
        <defs>
            <clipPath id="a">
                <path fill="#fff" d="M0 0h50v50H0z"/>
            </clipPath>
        </defs>
    </g>

    <g id="typescript">
        <path fill="#7572D5"
              d="M5 25v20h40V5H5v20Zm32.235-1.593a4.973 4.973 0 0 1 2.502 1.441c.368.394.915 1.11.958 1.284.013.05-1.727 1.216-2.78 1.871-.038.025-.192-.14-.362-.393-.516-.75-1.055-1.073-1.88-1.13-1.213-.083-1.993.552-1.986 1.612-.011.26.047.52.17.75.266.551.763.883 2.316 1.555 2.865 1.233 4.09 2.045 4.852 3.2.85 1.288 1.042 3.346.463 4.876-.633 1.664-2.208 2.794-4.425 3.167-.685.122-2.31.103-3.046-.03-1.607-.287-3.13-1.08-4.07-2.122-.369-.405-1.087-1.466-1.042-1.541.018-.027.183-.129.367-.235.18-.102.851-.49 1.486-.859l1.15-.666.242.356c.337.514 1.072 1.219 1.517 1.454 1.276.673 3.028.578 3.891-.197a1.472 1.472 0 0 0 .522-1.2c0-.463-.058-.667-.3-1.017-.31-.443-.945-.816-2.748-1.6-2.064-.888-2.952-1.44-3.765-2.316a5.275 5.275 0 0 1-1.099-2c-.151-.565-.19-1.982-.07-2.552.425-1.995 1.93-3.383 4.102-3.797.705-.133 2.343-.083 3.035.089Zm-9.39 1.67.013 1.638H22.65v14.793h-3.683V26.715h-5.204v-1.607c0-.89.019-1.633.044-1.65.02-.026 3.188-.04 7.028-.033l6.992.02.018 1.632Z"/>
    </g>

    <g id="styledComponents">
        <path fill="#7572D5"
              d="m37.26 6.25-.271 1.4c-.418 2.652-.267 3.411.88 4.395l1.106.91-1.146 5.075c-.685 3.029-1.525 5.567-2.058 6.4-.458.72-.991 1.78-1.107 2.35-.19.68-.84 1.363-1.83 1.968-.876.494-2.596 1.818-3.814 2.881-.973.87-1.643 1.404-2.007 1.633l-1.19.934c-.381.609-.598 1.099-.68 1.471-.084.383-.037.637.086.823.119.18.324.305.605.384.333.077.676.105 1.017.082a10.885 10.885 0 0 0 2.277-.401c.253-.068.45-.133.624-.19.267-.326.883-.941 1.975-2.012 2.898-2.838 4.004-4.392 2.862-3.973-.422.15-.231-.229.493-.988 1.528-1.478 2.404-3.712 4.235-10.717 1.449-5.53 1.449-5.61 2.516-5.61.5 0 1.917.087 1.917.087V6.25h-6.49ZM24.421 18.08c-1.053-.006-3.316 1.586-10.092 7.081-.292.69-.317 1.167-.184 1.475.087.211.245.358.465.465.217.108.498.172.808.197.616.054 1.344-.043 1.931-.157l.397-.09a1.39 1.39 0 0 1 .519-.422c.418-.23 2.173-1.819 3.928-3.523 3.089-3.107 3.813-4.51 2.556-4.965a.888.888 0 0 0-.328-.06Zm7.914 2.16c-.926.024-2.595 1.09-5.453 3.357-1.434 1.156-2.342 1.779-2.83 1.908l-1.888 1.482c-.71 1.288-.814 2.087-.627 2.527a.894.894 0 0 0 .498.48c.275.108.569.162.865.16a7.909 7.909 0 0 0 2.09-.304c.354-.094.704-.204 1.049-.329l.104-.043.191-.1c.36-.462 1.19-1.332 2.228-2.334 3.28-3.143 4.955-5.377 4.613-6.21-.155-.405-.422-.61-.84-.595ZM23.6 24.104c-.267.029-.865.487-1.943 1.425-1.557 1.367-3.254 2.155-3.842 1.804a14.4 14.4 0 0 1-.41.086c-.599.118-1.345.215-2.012.16a2.568 2.568 0 0 1-.908-.225 1.21 1.21 0 0 1-.605-.608c-.134-.322-.134-.723.018-1.235l-2.343 1.911-5.301 4.357v7.062l17.371-13.591a1.457 1.457 0 0 1 .058-.44c.133-.48.126-.724-.083-.702v-.004Zm7.475 2.287c-.264 0-.703.37-1.406 1.11-.955 1.013-2.458 1.994-3.254 2.194l-.123.065c-.13.053-.263.104-.396.15-.217.072-.498.158-.822.244-.649.175-1.456.336-2.177.318-.34 0-.676-.066-.991-.193a1.236 1.236 0 0 1-.663-.644c-.21-.498-.126-1.196.331-2.188L6.25 39.438v4.313h6.732l14.28-11.14c.37-.408.93-.966 1.683-1.664 2.018-1.858 2.476-2.499 2.476-3.447 0-.738-.083-1.11-.346-1.11v.003Zm3.398 6.98-1.222 1.21c-.684.645-1.906 1.44-2.742 1.78l-.166.071-.01.018-.037.036c-.032.025-.047.029-.072.04-.334.125-.673.236-1.016.332-.764.221-1.55.359-2.343.412a3.757 3.757 0 0 1-1.117-.097 1.312 1.312 0 0 1-.786-.515c-.173-.265-.223-.62-.126-1.056.077-.311.192-.612.342-.895L13.656 43.75h15.325l1.83-2.083c2.516-2.914 3.662-4.998 3.662-6.78v-1.514Z"/>
    </g>

    <g id="figma">
        <path fill="#7572D5"
              d="M17.708 4.167a6.25 6.25 0 1 0 0 12.5h14.584a6.25 6.25 0 1 0 0-12.5H17.708ZM32.292 18.75a6.25 6.25 0 1 0 0 12.5 6.25 6.25 0 0 0 0-12.5ZM11.458 25a6.25 6.25 0 0 1 6.25-6.25h6.25v12.5h-6.25a6.25 6.25 0 0 1-6.25-6.25ZM17.708 33.333a6.25 6.25 0 1 0 6.25 6.25v-6.25h-6.25Z"/>
    </g>

    <!--socials-->

    <g id="instagram">
        <path fill="#7572D5"
              d="M15.652 2.1H5.348A3.251 3.251 0 0 0 2.1 5.347V15.653A3.251 3.251 0 0 0 5.348 18.9h10.304a3.251 3.251 0 0 0 3.248-3.247V5.34A3.258 3.258 0 0 0 15.652 2.1Zm.931 1.935h.375v2.848l-2.842.006-.007-2.847 2.474-.007ZM8.098 8.771a2.964 2.964 0 0 1 2.395-1.233c.985 0 1.858.486 2.396 1.233.354.486.558 1.083.558 1.726a2.964 2.964 0 0 1-2.96 2.958 2.953 2.953 0 0 1-2.389-4.684Zm9.161 6.875a1.61 1.61 0 0 1-1.607 1.607H5.348a1.61 1.61 0 0 1-1.607-1.607V8.771h2.506a4.57 4.57 0 0 0-.34 1.726 4.598 4.598 0 0 0 4.593 4.592 4.598 4.598 0 0 0 4.594-4.592c0-.61-.125-1.194-.341-1.726h2.506v6.875Z"/>
    </g>

    <g id="telegram">
        <path fill="#1F1F20"
              d="M18.906 4.764 16.37 16.721c-.192.843-.69 1.053-1.4.656l-3.863-2.846-1.863 1.792c-.207.207-.379.38-.777.38l.278-3.935 7.16-6.47c.31-.276-.068-.43-.484-.153L6.57 11.72l-3.81-1.193c-.83-.259-.844-.829.172-1.227l14.904-5.742c.69-.258 1.294.153 1.069 1.207Z"/>
    </g>

    <g id="vk">
        <path fill="#7572D5"
              d="M18.17 13.994c-.366-.455-.782-.863-1.184-1.257-.143-.14-.29-.285-.433-.43-.41-.414-.424-.57-.1-1.04.224-.325.462-.65.691-.964.209-.285.424-.58.63-.875l.043-.061c.395-.566.803-1.151 1.02-1.857.057-.186.116-.46-.02-.69-.135-.229-.398-.298-.583-.331a1.54 1.54 0 0 0-.268-.018l-2.585-.002h-.021c-.391 0-.655.19-.806.583a16.39 16.39 0 0 1-.483 1.155c-.36.756-.816 1.627-1.476 2.354l-.028.03c-.078.088-.167.186-.231.186a.106.106 0 0 1-.033-.006c-.137-.055-.229-.398-.225-.558v-.007l-.001-3.095c0-.011 0-.022-.002-.033-.066-.503-.212-.816-.762-.928a.22.22 0 0 0-.045-.004H8.582c-.438 0-.68.184-.906.46-.062.074-.19.228-.126.414.064.19.272.23.34.243.336.066.526.28.58.652.093.646.105 1.336.036 2.172-.02.232-.058.411-.12.564-.015.036-.067.153-.12.153-.016 0-.064-.007-.153-.07-.208-.148-.36-.36-.538-.62A14.787 14.787 0 0 1 6.02 7.129c-.163-.413-.468-.644-.858-.651a75.14 75.14 0 0 0-1.189-.01c-.405 0-.78.004-1.148.012-.314.006-.531.103-.645.29-.115.187-.107.433.022.73 1.034 2.383 1.972 4.115 3.04 5.617.75 1.051 1.5 1.779 2.364 2.29.91.54 1.93.801 3.117.801a8.6 8.6 0 0 0 .414-.01c.69-.035.946-.294.978-.99.016-.356.053-.729.222-1.047.107-.2.206-.2.239-.2.062 0 .14.03.224.086.15.101.28.237.385.356l.296.342c.212.246.431.5.66.742.503.53 1.055.762 1.69.711H18.217a.689.689 0 0 0 .562-.373c.149-.273.146-.621-.008-.932a5.009 5.009 0 0 0-.601-.899Z"/>
    </g>

    <g id="linkedin">
        <path fill="#7572D5"
              d="M5.806 7.886H2.533v10.477h3.273V7.886ZM4.1 2.94c-1.206 0-2 .78-2 1.817 0 1.017.768 1.817 1.955 1.817h.026c1.233 0 2-.806 1.994-1.817C6.05 3.721 5.308 2.94 4.101 2.94ZM14.748 7.788c-1.877 0-3.05 1.023-3.267 1.745V7.886H7.8c.046.873 0 10.477 0 10.477h3.68V12.7c0-.321-.013-.636.078-.859.25-.63.794-1.286 1.772-1.286 1.279 0 1.856.971 1.856 2.388v5.419H18.9v-5.826c0-3.24-1.824-4.749-4.152-4.749Z"/>
    </g>

    <!--quote-->

    <g id="quote">
        <path fill="#7572D5"
              d="M13.542 20.833c-.465 0-.91.071-1.354.136.143-.484.291-.975.529-1.417.237-.642.608-1.198.977-1.758.308-.607.852-1.017 1.252-1.536.419-.504.99-.84 1.441-1.258.444-.438 1.026-.656 1.488-.965.483-.277.904-.583 1.354-.729l1.123-.462.988-.41-1.01-4.038-1.245.3c-.398.1-.883.216-1.435.356-.565.104-1.167.39-1.837.65-.663.296-1.43.496-2.142.97-.717.455-1.544.834-2.273 1.443-.706.627-1.558 1.17-2.188 1.968-.687.746-1.366 1.53-1.893 2.421-.61.85-1.025 1.784-1.463 2.706a23.077 23.077 0 0 0-.975 2.784 25.148 25.148 0 0 0-.8 5.077c-.07 1.496-.029 2.74.059 3.64.03.424.09.837.13 1.122l.053.35.054-.012a9.375 9.375 0 1 0 9.167-11.338Zm22.916 0c-.464 0-.91.071-1.354.136.144-.484.292-.975.53-1.417.237-.642.608-1.198.976-1.758.309-.607.852-1.017 1.252-1.536.42-.504.99-.84 1.442-1.258.444-.438 1.025-.656 1.488-.965.483-.277.904-.583 1.354-.729l1.123-.462.987-.41-1.01-4.038-1.244.3c-.398.1-.883.216-1.435.356-.565.104-1.167.39-1.838.65-.66.298-1.429.496-2.142.973-.716.454-1.543.833-2.272 1.442-.707.627-1.559 1.17-2.188 1.966-.687.746-1.367 1.53-1.894 2.421-.61.85-1.025 1.784-1.462 2.706a23.078 23.078 0 0 0-.975 2.784 25.15 25.15 0 0 0-.8 5.077c-.071 1.496-.03 2.74.058 3.64.031.424.09.837.131 1.122l.053.35.054-.012a9.374 9.374 0 1 0 9.166-11.338Z"/>
    </g>

    <!--arrow-->

    <g id="goTopButton">
        <g clip-path="url(#a)">
            <path fill="#000" fill-opacity=".3" d="M0 0h30v30H0z"/>
            <path fill="#fff" d="M13.807 11.28V22h2.386V11.28l5.12 4.801L23 14.5 15 7l-8 7.5 1.687 1.581 5.12-4.8Z"/>
        </g>
        <defs>
            <clipPath id="a">
                <path fill="#fff" d="M0 0h30v30H0z"/>
            </clipPath>
        </defs>
    </g>
</svg>